<svg xmlns="http://www.w3.org/2000/svg" width="250" height="250" fill="none" viewBox="0 0 250 250">
<!-- SVG created with Arrow, by QuiverAI (https://quiver.ai) -->
  <path d="m192.5 100.2c18.81-2.08 40.57 3.14 46.04 18.07 8.38 24.45-13.6 44.65-51.25 57.75l-0.52-3.77c14.47-8.58 31.44-17.83 37.19-34.14 3.18-11.94-5.47-22.04-23.92-23.01l-7.54-14.9z" fill="#69A6F7" stroke="#0B3068" stroke-linecap="round" stroke-linejoin="round" stroke-width="6.667"/>
  <path d="m196.1 108.9c12.49-0.73 25.83 4.38 29.57 14.01 6.22 16.08-6.88 31.01-35.88 47.08l-0.72-2.36c13.82-7.55 25.8-18.13 29.72-29.81 3.91-11.69-5.7-21.15-20.1-22.5l-2.59-6.42z" fill="#0B3068"/>
  <path d="m65.56 126.4c-32.6 14.41-56.39 35.38-55.71 62.78 0.57 21.98 17.29 37.37 44.86 37.73 31.6 0.42 49.57-11.87 81.28-19.84 27.62-7.19 58.29-6.98 83.94 13.12l6.9 5.79-10.47 8.52c-15.85-17.57-37.61-24.34-64.65-23.23-29 1.19-49.35 12.51-78.62 14.84 28.82-8.23 45.97-20.1 69.12-25.98 20.7-6.42 54.51-8.95 77.65 6.22 7.15 4.58 10.23 7.56 14.36 11.74-17.51-19.23-39.58-25.18-65.31-25.04l-6.15 0.14-8.05 1.52-46.37 5.9c-14.33 3.18-24.15 5.6-38.3 6.1-17.75 1.2-32.92-8.4-34.96-19.8-2.67-13.94 9.74-30.53 34.89-44.5l-4.41-16.01z" fill="#69A6F7" stroke="#0B3068" stroke-linecap="round" stroke-linejoin="round" stroke-width="6.667"/>
  <path d="m32.06 152.1c-11.78 17.21-13.95 35.09-4.09 45.53 14.75 15.8 38.86 14.21 55.14 11.23 14.26-2.85 29.64-8.15 46.68-10-17.51 4.86-38.14 16.62-58.64 21.74-19.84 5.06-38.08 3.21-50.14-10.09-14.75-16.59-8.39-39.48 11.05-58.41z" fill="#77B5F7"/>
  <path d="m168.1 193.3c20.94-1.45 41.15 3.85 55.23 15.65l10.54 9.85-6.43 7.15c-21.29-20.39-41.06-26.17-62.66-23.67-20.35-0.28-41.7 4.37-74.05 17.47 20.21-5.79 36.06-13.49 58.48-19.27 6.08-1.78 11.83-4.63 18.89-7.18z" fill="#C0E1FF"/>
  <path d="m101.7 64.79c-2.69-2.7-6.78-4.68-11.55-4.39-9.18 0.54-15 8.57-14.73 14.72 0.38 9.14 5.83 12.19 7.73 13.32h38.94c3.86-7.29 7.18-15.63 6.86-21.35-0.42-7.43-6.2-15.07-15.24-15.07-8.05-0.21-11.76 6.21-12.01 12.77z" fill="#558AED" stroke="#0B3068" stroke-miterlimit="10" stroke-width="6"/>
  <path d="m102.9 69.85c-4.09-3.69-7.8-6.74-13.11-6.46-6.85 0.35-11.76 5.65-11.76 11.31 0 6.25 3.02 10.36 8.73 12.96h30.93c4.41-6.85 6.45-14.43 5.63-19.56-1.01-6.08-5.63-7.99-10.16-7.78-5.23 0.28-8.97 3.49-10.26 9.53z" fill="#69A6F7"/>
  <path d="m86.64 31.99c-1.43-0.98-2.79-1.05-4.5-0.98-4.5 0.28-7.89 4.11-7.17 7.73 1.08 5.53 6.67 7.47 9.48 8.38l9.42 1.85c3.19-6.42 5.16-10.74 5.02-15.25s-2.87-8.2-6.96-8.2c-3.26 0-4.86 2.71-5.29 6.47z" fill="#69A6F7"/>
  <path d="m125.8 16.71c-1.9-1.91-3.67-2.89-7.91-2.68-6.08 0.21-8.05 5.8-7.91 8.58 0.28 6.42 5.07 10.6 15.47 18.63 7.84-6.42 14.06-12.42 14.06-19.12-0.14-4.44-3.26-8.09-7.35-7.95-2.86-0.07-4.7 0.7-6.36 2.54z" fill="#86B9F9" stroke="#0B3068" stroke-miterlimit="10" stroke-width="5"/>
  <path d="m147 40.05 53.17 17.5-4.02 13.9-53.17-17.5 4.02-13.9z" fill="#86B9F9" stroke="#0B3068" stroke-miterlimit="10" stroke-width="5"/>
  <path d="m146.3 55.63 13.68 4.27 6.99 2.46-10 25.3h-21.83l11.16-32.03z" fill="#77B5F7" stroke="#0B3068" stroke-miterlimit="10" stroke-width="5"/>
  <path d="m175.1 51.12 24.08 8.03-3.29 12.37-23.72-8.03 2.93-12.37z" fill="#A8D2F9" stroke="#0B3068" stroke-miterlimit="10" stroke-width="5"/>
  <path d="m148.2 42.41 23.48 7.65-4.56 9.84-22.28-8.09 3.36-9.4z" fill="#A8D2F9" stroke="#0B3068" stroke-miterlimit="10" stroke-width="5"/>
  <path d="m172.8 63.49 18.45 6.63-6.08 17.54h-23.41l11.04-24.17z" fill="#77B5F7" stroke="#0B3068" stroke-miterlimit="10" stroke-width="5"/>
  <path d="m173 46.09c-5.48-4.03-12.83-8.96-12.83-13.96 0-4.37 2.18-6.59 5.68-6.59 7.22 0 8.01 9.78 8.87 19.45 5.92-5.97 11.54-10.71 15.7-10.71 4.9 0 6.13 3.83 6.13 6.43 0 6.7-6.71 7.2-15.77 7.9" stroke="#0B3068" stroke-linecap="round" stroke-linejoin="round" stroke-miterlimit="10" stroke-width="5"/>
  <path d="m32.96 73.09h18.74c4.72 0 6.02 2.85 7.44 6.81l6.29 16.24h127.6l-15.09 53.7c-1.43 4.28-3.95 5.91-9.5 6.26l-77.76 6.01c-10.68 0.49-10.68 13.66-1.5 13.66h83.99" stroke="#0B3068" stroke-linecap="round" stroke-linejoin="round" stroke-width="6.667"/>
  <path d="m67.11 99.06 6.01 16.66h112.1l3.64-16.66h-121.8z" fill="#C0E1FF" stroke="#0B3068" stroke-miterlimit="10" stroke-width="5"/>
  <path d="m72.91 117.8 8.16 19.96h99.14l5.01-19.96h-112.3z" fill="#A8D2F9" stroke="#0B3068" stroke-miterlimit="10" stroke-width="5"/>
  <path d="m82.11 138.5 6.6 21.51 15.43-0.7-3.98-20.81h-18.05z" fill="#A8D2F9" stroke="#0B3068" stroke-miterlimit="10" stroke-width="5"/>
  <path d="m100.2 138.5 3.67 20.81 15.44-0.7-1.56-20.11h-17.55z" fill="#A8D2F9" stroke="#0B3068" stroke-miterlimit="10" stroke-width="5"/>
  <path d="m119.4 138.5 1.32 19.76 18.25-1.13 0.94-18.63h-20.51z" fill="#A8D2F9" stroke="#0B3068" stroke-miterlimit="10" stroke-width="5"/>
  <path d="m140.7 138.5-1.11 18.14 18.18-1.42 3.29-16.72h-20.36z" fill="#A8D2F9" stroke="#0B3068" stroke-miterlimit="10" stroke-width="5"/>
  <path d="m160.5 138.5-3.05 16.24 12.41-1.04c3.47-0.35 6.06-1.67 7.29-7.6l1.43-7.53-18.08-0.07z" fill="#A8D2F9" stroke="#0B3068" stroke-miterlimit="10" stroke-width="5"/>
  <path d="m90.36 97.15 3.79 18.92h15.79l6.01-0.35 0.28-18.57h-25.87z" fill="#A8D2F9" stroke="#0B3068" stroke-miterlimit="10" stroke-width="5"/>
  <path d="m117 97.15 1.25 18.92h23.72l1.32-18.92h-26.29z" fill="#A8D2F9" stroke="#0B3068" stroke-miterlimit="10" stroke-width="5"/>
  <path d="m143.9 97.15-1.22 18.92h22.56l4.16-18.92h-25.5z" fill="#A8D2F9" stroke="#0B3068" stroke-miterlimit="10" stroke-width="5"/>
  <path d="m169.4 97.15-3.29 18.92h19.1l3.67-18.92h-19.48z" fill="#A8D2F9" stroke="#0B3068" stroke-miterlimit="10" stroke-width="5"/>
  <path d="m102.8 179.2c-6.36 0-9.79 4.86-9.79 10.06 0 5.78 3.95 9.06 9.43 9.06 6.36 0 8.68-5.4 8.68-9.4 0-5-3.81-9.72-8.32-9.72z" fill="#69A6F7" stroke="#0B3068" stroke-miterlimit="10" stroke-width="6"/>
  <path d="m157.7 179.2c-6.36 0-9.79 4.86-9.79 10.06 0 5.78 3.95 9.06 9.43 9.06 6.36 0 8.67-5.4 8.67-9.4 0-5-3.8-9.72-8.31-9.72z" fill="#69A6F7" stroke="#0B3068" stroke-miterlimit="10" stroke-width="6"/>
</svg>